General                          : ChattChitto RG - Movies

Complete name                    : The Bounty Hunter 2010 R5 LiNE.mp4
Format                           : MPEG-4
Format profile                   : Base Media
Codec ID                         : isom
File size                        : 1.50 GiB
Duration                         : 1h 46mn
Overall bit rate                 : 2 024 Kbps
Encoded date                     : UTC 2010-05-01 17:32:55

Video
==========
ID                               : 1
Format                           : AVC
Format/Info                      : Advanced Video Codec
Format profile                   : High@L3.0
Format settings, CABAC           : Yes
Format settings, ReFrames        : 3 frames
Codec ID                         : avc1
Codec ID/Info                    : Advanced Video Coding
Duration                         : 1h 46mn
Bit rate mode                    : Variable
Bit rate                         : 1 765 Kbps
Maximum bit rate                 : 8 028 Kbps
Width                            : 720 pixels
Height                           : 304 pixels
Display aspect ratio             : 2.35:1
Frame rate mode                  : Constant
Frame rate                       : 29.970 fps
Resolution                       : 8 bits
Colorimetry                      : 4:2:0
Scan type                        : Progressive
Bits/(Pixel*Frame)               : 0.269
Stream size                      : 1.31 GiB (87%)
Writing library                  : x264 core 76 r1271 496d79d
Encoded date                     : UTC 2010-05-01 17:28:09

Audio
==========
ID                               : 2
Format                           : AAC
Format/Info                      : Advanced Audio Codec
Format version                   : Version 4
Format profile                   : LC
Format settings, SBR             : No
Codec ID                         : 40
Duration                         : 1h 46mn
Bit rate mode                    : Variable
Bit rate                         : 255 Kbps
Maximum bit rate                 : 329 Kbps
Channel(s)                       : 2 channels
Channel positions                : Front: L R
Sampling rate                    : 48.0 KHz
Stream size                      : 193 MiB (13%)
Encoded date                     : UTC 2010-05-01 17:33:36

Subtitles                        : English | Spanish



----------------------------------------------------
IMDB Link: http://www.imdb.com/title/tt1038919/
----------------------------------------------------


Screen Shots:
==============
http://bayimg.com/LAmPkaACE
http://bayimg.com/LAmpjaAcE
http://bayimg.com/laMPiAacE
http://bayimg.com/LAMPhaAcE
http://bayimg.com/LAMPGAaCe



Plot:
======
A bounty hunter learns that his next target is his ex-wife, a reporter working on a murder cover-up. Soon after their reunion, the always-at-odds duo find themselves on a run-for-their-lives adventure.




Release Info:
==============
original name .... : The Bounty Hunter 2010 R5 LiNE.mp4
ripper.............: ELEKTRI4KA | IMAGiNE
encoder............: Recalled2Life (R2L)
video codec........: H264/.MP4
video bitrate......: 1765 Kbps
audio codec........: AAC-LC
aspect ratio.......: 2.35:1
resolution.........: 720 x 304
genre..............: Action | Comedy | Crime | Romance
runtime............: 1h 46mn
language...........: English
MPAA rating........: PG-13
subtitles..........: English | Spanish
sample.............: Yes [9.99 MB]
2ch Audio..........: 2ch Audio for XBox Viewers
Compatibility .....: XBox 360 | PS3 | WD Live



Source:
========
Russion DVD5 - ELEKTRI4KA | Audio - IMAGiNE LiNE


Notes:
=======
ChattChitto RG Encourages Burning this Film with ConvertXtoDVD.
Enhanced and Filtered for your viewing pleasure ;)